<svg width="556" height="417" viewBox="0 0 556 417" fill="none" xmlns="http://www.w3.org/2000/svg">
<path d="M268 41L271 23.5V3.5L286 1L291 27L283 41L275 43.5L268 41Z" fill="url(#paint0_linear_33_98)" stroke="black"/>
<path d="M260 26.5L151.5 43V75.5L196.5 68L201.5 206.5H236L223.5 62H251.5L260 26.5Z" fill="url(#paint1_linear_33_98)" stroke="black"/>
<path d="M136.5 46.5L43 75.5L24.5 86L30.5 112L64 102.5L70 182.5H43V206.5H120L128.5 164H99.5L105.5 86L136.5 75.5V46.5Z" fill="url(#paint2_linear_33_98)" stroke="black"/>
<path d="M330 26L382 60.1326L370 74.9371L338 51.9079H321.5L374.5 97.5551L406 132.921L420 162.53L374.5 185.148L316.5 209L285 185.148L308.5 173.634L359.5 149.782L351 102.901L299 43.2719L330 26Z" fill="url(#paint3_linear_33_98)" stroke="black"/>
<path d="M344 274L263.857 298.831L248 307.822L253.143 330.084L281.857 321.95L287 390.45H263.857V411H329.857L337.143 374.609H312.286L317.429 307.822L344 298.831V274Z" fill="url(#paint4_linear_33_98)" stroke="black"/>
<path d="M1 316.315L59.0326 274L85.0619 284.474L94.8762 306.679L69.2736 325.951L49.2182 338.101V355.697L69.2736 374.969H123.039L132 390.052L102.13 411H30.443L11.6678 361.982L1 316.315Z" fill="url(#paint5_linear_33_98)" stroke="black"/>
<path d="M145.84 408L142 278.858H163.76V312.054L176.56 326.224H195.76H209.413V274H231.6L238 388.568L231.6 408L209.413 399.498V366.302L195.76 355.372H167.173L158.213 408H145.84Z" fill="url(#paint6_linear_33_98)" stroke="black"/>
<path d="M374 373.307V274H408.298V386.765H451.544L459 416H408.298L383.444 404.863L374 373.307Z" fill="url(#paint7_linear_33_98)" stroke="black"/>
<path d="M469 373.307V274H503.702V386.765H547.456L555 416H503.702L478.556 404.863L469 373.307Z" fill="url(#paint8_linear_33_98)" stroke="black"/>
<defs>
<linearGradient id="paint0_linear_33_98" x1="274.658" y1="-6.03125" x2="307.107" y2="14.0801" gradientUnits="userSpaceOnUse">
<stop stop-color="#FF5260"/>
<stop offset="1" stop-color="#F49E58"/>
</linearGradient>
<linearGradient id="paint1_linear_33_98" x1="182.908" y1="-3.27941" x2="326.399" y2="95.7783" gradientUnits="userSpaceOnUse">
<stop stop-color="#FF5260"/>
<stop offset="1" stop-color="#F49E58"/>
</linearGradient>
<linearGradient id="paint2_linear_33_98" x1="56.921" y1="20.0294" x2="190.061" y2="126.766" gradientUnits="userSpaceOnUse">
<stop stop-color="#FF5260"/>
<stop offset="1" stop-color="#F49E58"/>
</linearGradient>
<linearGradient id="paint3_linear_33_98" x1="324.079" y1="-4.27573" x2="477.903" y2="125.685" gradientUnits="userSpaceOnUse">
<stop stop-color="#FF5260"/>
<stop offset="1" stop-color="#F49E58"/>
</linearGradient>
<linearGradient id="paint4_linear_33_98" x1="275.789" y1="251.335" x2="389.817" y2="342.844" gradientUnits="userSpaceOnUse">
<stop stop-color="#FF5260"/>
<stop offset="1" stop-color="#F49E58"/>
</linearGradient>
<linearGradient id="paint5_linear_33_98" x1="38.921" y1="251.335" x2="155.239" y2="378.714" gradientUnits="userSpaceOnUse">
<stop stop-color="#FF5260"/>
<stop offset="1" stop-color="#F49E58"/>
</linearGradient>
<linearGradient id="paint6_linear_33_98" x1="169.789" y1="251.831" x2="281.83" y2="343.758" gradientUnits="userSpaceOnUse">
<stop stop-color="#FF5260"/>
<stop offset="1" stop-color="#F49E58"/>
</linearGradient>
<linearGradient id="paint7_linear_33_98" x1="398.605" y1="250.507" x2="511.522" y2="327.917" gradientUnits="userSpaceOnUse">
<stop stop-color="#FF5260"/>
<stop offset="1" stop-color="#F49E58"/>
</linearGradient>
<linearGradient id="paint8_linear_33_98" x1="493.895" y1="250.507" x2="607.282" y2="329.154" gradientUnits="userSpaceOnUse">
<stop stop-color="#FF5260"/>
<stop offset="1" stop-color="#F49E58"/>
</linearGradient>
</defs>
</svg>
